<?xml version="1.0" encoding="iso-8859-1"?>
<!-- Uploaded to: SVG Repo, www.svgrepo.com, Generator: SVG Repo Mixer Tools -->
<svg height="800px" width="800px" version="1.1" id="Layer_1" xmlns="http://www.w3.org/2000/svg" xmlns:xlink="http://www.w3.org/1999/xlink" 
	 viewBox="0 0 502 502" xml:space="preserve">
<g>
	<polygon style="fill:#E6E6E6;" points="170.667,459.902 10,431.487 10,42.099 170.667,70.513 	"/>
	<polygon style="fill:#E6E6E6;" points="492,459.902 331.333,431.487 331.333,42.099 492,70.513 	"/>
	<polygon style="fill:#DB4949;" points="170.667,459.902 331.333,431.487 331.333,42.099 170.667,70.513 	"/>
	<circle style="fill:#DB4949;" cx="88.748" cy="382.253" r="18.252"/>
	<circle style="fill:#DB4949;" cx="407.748" cy="123.253" r="18.252"/>
	<g>
		<path d="M493.741,60.666L333.074,32.251c-1.135-0.201-2.347-0.201-3.482,0L170.667,60.358L11.741,32.251
			c-2.91-0.517-5.901,0.285-8.167,2.185C1.309,36.336,0,39.141,0,42.099v389.389c0,4.851,3.481,9.002,8.259,9.847l160.667,28.415
			c1.156,0.193,2.326,0.193,3.482,0l158.925-28.107l158.926,28.107c0.579,0.103,1.162,0.153,1.741,0.153
			c2.331,0,4.611-0.816,6.426-2.338c2.266-1.9,3.574-4.705,3.574-7.662V70.514C502,65.662,498.519,61.511,493.741,60.666z
			 M341.333,262.552l0.26,0.053c0.656,0.133,1.324,0.201,1.994,0.201c33.282,0,59.098,37.196,59.098,69.195v0.544
			c0,14.01-4.779,23.15-15.039,28.766c-9.394,5.141-23.679,7.657-43.666,7.689l-2.646-0.21V262.552z M321.333,242.153l-34.137,5.94
			c-18.402,1.959-33.334-1.671-43.193-10.508c-9.49-8.506-14.507-21.849-14.507-38.584c0-34.567,22.359-61.417,58.384-70.167
			l13.534-1.934c5.468-0.781,9.267-5.846,8.485-11.313s-5.846-9.266-11.313-8.485l-14,2c-0.304,0.043-0.604,0.101-0.902,0.171
			c-22.48,5.353-41.307,16.714-54.442,32.855c-12.917,15.875-19.745,35.541-19.745,56.873c0,22.579,7.316,41.071,21.158,53.478
			c14.265,12.786,34.673,18.133,59.028,15.463c0.209-0.023,0.417-0.052,0.624-0.088l31.026-5.399v107.028l-140.666,23.59V78.9
			l140.666-24.878V242.153z M20,54.022L160.667,78.9v313.345l-43.701-11.348C116.256,365.946,103.872,354,88.748,354
			c-15.578,0-28.252,12.674-28.252,28.252c0,15.579,12.674,28.252,28.252,28.252c8.884,0,16.819-4.126,22.001-10.557l49.917,12.961
			v35.07L20,423.1V54.022z M97,382.252c0,4.55-3.702,8.252-8.252,8.252s-8.252-3.702-8.252-8.252S84.198,374,88.748,374
			S97,377.702,97,382.252z M180.667,413.351l140.666-23.59V423.1l-140.666,24.878V413.351z M482,447.978L341.333,423.1v-34.247
			l1.462,0.116c0.264,0.021,0.527,0.031,0.792,0.031c23.963,0,41.014-3.224,53.66-10.145c16.879-9.238,25.438-24.819,25.438-46.311
			V332c0-41.778-33.307-88.465-78.049-89.187l-3.303-0.672V54.022L482,78.9V447.978z"/>
		<path d="M50,85c-5.522,0-10,4.477-10,10v153.305c0,5.523,4.478,10,10,10s10-4.477,10-10V95C60,89.477,55.522,85,50,85z"/>
		<path d="M50,272.922c-5.522,0-10,4.477-10,10V306c0,5.523,4.478,10,10,10s10-4.477,10-10v-23.078
			C60,277.399,55.522,272.922,50,272.922z"/>
		<path d="M361.859,125.118l18.064,2.996c2.312,13.269,13.905,23.391,27.825,23.391c15.578,0,28.252-12.674,28.252-28.252
			C436,107.674,423.326,95,407.748,95c-10.16,0-19.081,5.393-24.06,13.464l-18.555-3.078c-5.467-0.905-10.6,2.781-11.502,8.229
			C352.728,119.064,356.411,124.214,361.859,125.118z M407.748,115c4.55,0,8.252,3.702,8.252,8.252s-3.702,8.252-8.252,8.252
			s-8.252-3.702-8.252-8.252S403.198,115,407.748,115z"/>
	</g>
</g>
</svg>