<svg xmlns="http://www.w3.org/2000/svg" version="1.1" xmlns:xlink="http://www.w3.org/1999/xlink" xmlns:svgjs="http://svgjs.dev/svgjs" width="2000" height="898" viewBox="0 0 2000 898"><g transform="matrix(1,0,0,1,-1.2121212121212466,1.0409253332488788)"><svg viewBox="0 0 396 178" data-background-color="#000000" preserveAspectRatio="xMidYMid meet" height="898" width="2000" xmlns="http://www.w3.org/2000/svg" xmlns:xlink="http://www.w3.org/1999/xlink"><g id="tight-bounds" transform="matrix(1,0,0,1,0.2400000000000091,-0.20633041126760077)"><svg viewBox="0 0 395.52 178.4126608225352" height="178.4126608225352" width="395.52"><g><svg viewBox="0 0 395.52 178.4126608225352" height="178.4126608225352" width="395.52"><g transform="matrix(1,0,0,1,0,110.26618194929577)"><svg viewBox="0 0 395.52 68.14647887323943" height="68.14647887323943" width="395.52"><g id="textblocktransform"><svg viewBox="0 0 395.52 68.14647887323943" height="68.14647887323943" width="395.52" id="textblock"><g><svg viewBox="0 0 395.52 68.14647887323943" height="68.14647887323943" width="395.52"><g transform="matrix(1,0,0,1,0,0)"><svg width="395.52" viewBox="2.53 -33.33 253.9 43.75" height="68.14647887323943" data-palette-color="url(#1d8aa40f-978e-438d-8ae6-f40686a3a163)"></svg></g></svg></g></svg></g></svg></g><g transform="matrix(1,0,0,1,150.66983891556492,0)"><svg viewBox="0 0 94.18032216887013 94.1784338028169" height="94.1784338028169" width="94.18032216887013"><g><svg xmlns="http://www.w3.org/2000/svg" data-name="Layer 1" viewBox="2 2.0002671920968043 60.00093585889972 59.99973280790319" x="0" y="0" height="94.1784338028169" width="94.18032216887013" class="icon-icon-0" data-fill-palette-color="accent" id="icon-0"></svg></g></svg></g><g></g></svg></g><defs></defs><mask id="fdf6c2ca-b9b2-47bb-af91-377a5353653e"><g id="SvgjsG1012"><svg viewBox="0 0 395.52 178.4126608225352" height="178.4126608225352" width="395.52"><g><svg viewBox="0 0 395.52 178.4126608225352" height="178.4126608225352" width="395.52"><g transform="matrix(1,0,0,1,0,110.26618194929577)"><svg viewBox="0 0 395.52 68.14647887323943" height="68.14647887323943" width="395.52"><g id="SvgjsG1011"><svg viewBox="0 0 395.52 68.14647887323943" height="68.14647887323943" width="395.52" id="SvgjsSvg1010"><g><svg viewBox="0 0 395.52 68.14647887323943" height="68.14647887323943" width="395.52"><g transform="matrix(1,0,0,1,0,0)"><svg width="395.52" viewBox="2.53 -33.33 253.9 43.75" height="68.14647887323943" data-palette-color="url(#1d8aa40f-978e-438d-8ae6-f40686a3a163)"><path d="M11.11 0.42L11.11 0.42Q8.33 0.42 6.09-0.69 3.85-1.81 2.53-3.4L2.53-3.4 3.68-8.19Q4.65-6.25 6.6-4.69 8.54-3.13 11.25-3.13L11.25-3.13Q13.72-3.13 15.33-4.69 16.94-6.25 16.94-8.54L16.94-8.54Q16.94-10.21 16.15-11.28 15.35-12.36 14.34-12.99 13.33-13.61 12.74-13.89L12.74-13.89 8.92-15.83Q8.02-16.32 6.68-17.19 5.35-18.06 4.34-19.58 3.33-21.11 3.33-23.54L3.33-23.54Q3.33-25.9 4.43-27.74 5.52-29.58 7.48-30.63 9.44-31.67 11.98-31.67L11.98-31.67Q14.48-31.67 16.39-30.78 18.3-29.9 19.38-28.96L19.38-28.96 18.23-24.17Q17.36-25.63 15.66-26.91 13.96-28.19 11.81-28.19L11.81-28.19Q9.72-28.19 8.47-26.96 7.22-25.73 7.22-23.92L7.22-23.92Q7.22-22.53 7.86-21.63 8.51-20.73 9.32-20.21 10.14-19.69 10.66-19.41L10.66-19.41 14.55-17.47Q15.24-17.12 16.3-16.49 17.36-15.87 18.4-14.84 19.44-13.82 20.14-12.34 20.83-10.87 20.83-8.78L20.83-8.78Q20.83-6.11 19.57-4.03 18.3-1.94 16.11-0.76 13.92 0.42 11.11 0.42ZM35.76 0.42L35.76 0.42Q32.74 0.42 30.24-1.04 27.74-2.5 26.26-4.97 24.79-7.43 24.79-10.42L24.79-10.42Q24.79-13.44 26.26-15.89 27.74-18.33 30.24-19.79 32.74-21.25 35.76-21.25L35.76-21.25Q38.82-21.25 41.3-19.79 43.78-18.33 45.26-15.89 46.73-13.44 46.73-10.42L46.73-10.42Q46.73-7.43 45.26-4.97 43.78-2.5 41.3-1.04 38.82 0.42 35.76 0.42ZM35.76-3.13L35.76-3.13Q37.78-3.13 39.41-4.11 41.04-5.1 42.01-6.75 42.98-8.4 42.98-10.42L42.98-10.42Q42.98-12.43 42.01-14.08 41.04-15.73 39.41-16.72 37.78-17.71 35.76-17.71L35.76-17.71Q33.75-17.71 32.12-16.72 30.48-15.73 29.51-14.08 28.54-12.43 28.54-10.42L28.54-10.42Q28.54-8.4 29.51-6.75 30.48-5.1 32.12-4.11 33.75-3.13 35.76-3.13ZM55.69 0L51.94 0 51.94-33.33 55.69-33.33 55.69 0ZM80.48-20.83L69.96 1.04 59.44-20.83 63.71-20.83 67.94-11.81Q68.53-10.59 69.06-9.41 69.58-8.23 70.06-6.53L70.06-6.53Q70.58-8.23 71.12-9.43 71.66-10.63 72.21-11.81L72.21-11.81 76.49-20.83 80.48-20.83ZM94.16 0.42L94.16 0.42Q90.89 0.42 88.31-1.04 85.72-2.5 84.24-5.02 82.77-7.53 82.77-10.63L82.77-10.63Q82.77-13.58 84.19-15.99 85.62-18.4 88.03-19.83 90.44-21.25 93.36-21.25L93.36-21.25Q96.24-21.25 98.64-19.88 101.03-18.51 102.46-16.18 103.88-13.85 103.88-10.9L103.88-10.9 103.88-9.38 90.27-9.38Q89.37-9.38 88.43-9.44 87.49-9.51 86.59-9.65L86.59-9.65Q86.97-6.88 89.1-5 91.24-3.13 94.19-3.13L94.19-3.13Q96.17-3.13 97.87-4.03 99.57-4.93 100.62-6.42L100.62-6.42 101.66-2.15Q100.16-0.94 98.24-0.26 96.31 0.42 94.16 0.42ZM86.48-12.19L86.48-12.19Q88.36-12.5 90.27-12.5L90.27-12.5 97.18-12.5Q97.94-12.5 98.69-12.45 99.43-12.4 100.2-12.33L100.2-12.33Q99.71-14.76 97.77-16.34 95.82-17.92 93.36-17.92L93.36-17.92Q90.82-17.92 88.91-16.23 87-14.55 86.48-12.19ZM113.67 0L109.92 0 109.92-32.29 124.43-12.29 138.67-32.29 138.67 0 134.71 0 134.71-14.44Q134.71-15.87 134.74-17.55 134.78-19.24 134.99-21.39L134.99-21.39Q133.91-19.48 132.89-18.04 131.86-16.6 131.03-15.38L131.03-15.38 124.29-5.83 117.35-15.38Q116.48-16.6 115.49-18.04 114.5-19.48 113.39-21.39L113.39-21.39Q113.6-19.24 113.63-17.55 113.67-15.87 113.67-14.44L113.67-14.44 113.67 0ZM149.57 10.42L145.51 10.42 152.28-3.06 143.46-20.83 147.69-20.83 152.14-11.81Q152.73-10.59 153.28-9.41 153.84-8.23 154.39-6.56L154.39-6.56Q154.99-8.23 155.52-9.43 156.06-10.63 156.69-11.81L156.69-11.81 161.2-20.83 165.19-20.83 149.57 10.42ZM173.94 0L169.98 0 169.98-31.25 177.73-31.25Q180.82-31.25 182.95-30.31 185.09-29.38 186.41-27.86 187.73-26.35 188.33-24.58 188.94-22.81 188.94-21.11L188.94-21.11Q188.94-19.44 188.35-17.67 187.76-15.9 186.44-14.38 185.12-12.85 182.97-11.91 180.82-10.97 177.73-10.97L177.73-10.97 173.94-10.97 173.94 0ZM173.94-27.71L173.94-14.51 177.52-14.51Q180.33-14.51 181.96-15.5 183.59-16.49 184.29-18 184.98-19.51 184.98-21.11L184.98-21.11Q184.98-22.64 184.31-24.17 183.63-25.69 182.01-26.7 180.4-27.71 177.52-27.71L177.52-27.71 173.94-27.71ZM197.69 0L193.94 0 193.94-20.83 197.41-20.83 197.41-17.01Q198.52-18.85 200.36-19.95 202.2-21.04 204.74-21.04L204.74-21.04 205.67-17.29Q205.01-17.5 204.15-17.5L204.15-17.5Q201.23-17.5 199.46-15.64 197.69-13.78 197.69-10.35L197.69-10.35 197.69 0ZM219.07 0.42L219.07 0.42Q216.05 0.42 213.55-1.04 211.05-2.5 209.58-4.97 208.1-7.43 208.1-10.42L208.1-10.42Q208.1-13.44 209.58-15.89 211.05-18.33 213.55-19.79 216.05-21.25 219.07-21.25L219.07-21.25Q222.13-21.25 224.61-19.79 227.1-18.33 228.57-15.89 230.05-13.44 230.05-10.42L230.05-10.42Q230.05-7.43 228.57-4.97 227.1-2.5 224.61-1.04 222.13 0.42 219.07 0.42ZM219.07-3.13L219.07-3.13Q221.09-3.13 222.72-4.11 224.35-5.1 225.32-6.75 226.3-8.4 226.3-10.42L226.3-10.42Q226.3-12.43 225.32-14.08 224.35-15.73 222.72-16.72 221.09-17.71 219.07-17.71L219.07-17.71Q217.06-17.71 215.43-16.72 213.8-15.73 212.82-14.08 211.85-12.43 211.85-10.42L211.85-10.42Q211.85-8.4 212.82-6.75 213.8-5.1 215.43-4.11 217.06-3.13 219.07-3.13ZM246.05 0.28L246.05 0.28Q243.9 0.28 242.02-0.54 240.15-1.35 238.73-2.74L238.73-2.74 238.73 0 235.25 0 235.25-33.33 239-33.33 239-18.37Q240.39-19.65 242.2-20.38 244-21.11 246.05-21.11L246.05-21.11Q248.93-21.11 251.28-19.67 253.62-18.23 255.03-15.8 256.43-13.37 256.43-10.42L256.43-10.42Q256.43-7.47 255.03-5.03 253.62-2.6 251.28-1.16 248.93 0.28 246.05 0.28ZM245.57-3.13L245.57-3.13Q247.54-3.13 249.16-4.11 250.77-5.1 251.73-6.75 252.68-8.4 252.68-10.42L252.68-10.42Q252.68-12.43 251.73-14.08 250.77-15.73 249.16-16.72 247.54-17.71 245.57-17.71L245.57-17.71Q243.59-17.71 241.97-16.72 240.36-15.73 239.4-14.08 238.45-12.43 238.45-10.42L238.45-10.42Q238.45-8.4 239.4-6.75 240.36-5.1 241.97-4.11 243.59-3.13 245.57-3.13Z" opacity="1" transform="matrix(1,0,0,1,0,0)" fill="white" class="wordmark-text-0" id="SvgjsPath1009"></path></svg></g></svg></g></svg></g></svg></g><g transform="matrix(1,0,0,1,150.66983891556492,0)"><svg viewBox="0 0 94.18032216887013 94.1784338028169" height="94.1784338028169" width="94.18032216887013"><g><svg xmlns="http://www.w3.org/2000/svg" data-name="Layer 1" viewBox="2 2.0002671920968043 60.00093585889972 59.99973280790319" x="0" y="0" height="94.1784338028169" width="94.18032216887013" class="icon-icon-0" data-fill-palette-color="accent" id="SvgjsSvg1008"><path d="M31.385 7.788A1 1 0 0 0 32.242 7.97L40.242 5.97A1 1 0 0 0 40.242 4.03L32.242 2.03A1 1 0 0 0 31 3V7A1 1 0 0 0 31.385 7.788M33 4.281L35.877 5 33 5.719Z" fill="black"></path><path d="M56.305 42.438L58.18 43.138C58.421 42.489 58.641 41.828 58.833 41.173L56.913 40.61A28 28 0 0 1 56.305 42.438" fill="black"></path><path d="M59.709 37.126L57.729 36.843C57.64 37.469 57.529 38.107 57.39 38.743L59.345 39.161C59.49 38.481 59.613 37.8 59.709 37.126" fill="black"></path><path d="M26.868 4.292L27.151 6.272C27.792 6.181 28.436 6.112 29.065 6.072L28.929 4.072A29 29 0 0 0 26.868 4.292" fill="black"></path><path d="M13.321 12.592C13.81 12.169 14.313 11.762 14.821 11.383L13.621 9.783A29 29 0 0 0 12.009 11.083Z" fill="black"></path><path d="M43.049 59.386L42.217 57.567A27 27 0 0 1 40.439 58.305L41.139 60.178A28 28 0 0 0 43.049 59.386" fill="black"></path><path d="M4.067 31.075L2.067 30.937A33 33 0 0 0 2 33H4C4 32.359 4.022 31.712 4.067 31.075" fill="black"></path><path d="M55.4 48.684L53.715 47.6C53.365 48.143 52.995 48.675 52.615 49.181L54.215 50.381C54.622 49.84 55.021 49.268 55.4 48.684" fill="black"></path><path d="M52.913 52L51.4 50.687C50.983 51.167 50.542 51.642 50.087 52.097L51.5 53.511C51.99 53.022 52.465 52.513 52.913 52" fill="black"></path><path d="M21.558 7.7L20.858 5.827C20.21 6.068 19.567 6.335 18.948 6.619L19.78 8.438A23 23 0 0 1 21.558 7.7" fill="black"></path><path d="M25.254 6.613L24.832 4.658C24.166 4.802 23.49 4.974 22.824 5.169L23.387 7.089C24.007 6.907 24.635 6.747 25.254 6.613" fill="black"></path><path d="M16.4 10.281C16.942 9.932 17.5 9.601 18.057 9.297L17.1 7.541C16.5 7.869 15.9 8.225 15.32 8.6Z" fill="black"></path><path d="M10.591 50.678C10.168 50.189 9.761 49.686 9.382 49.178L7.782 50.378A29 29 0 0 0 9.082 51.99Z" fill="black"></path><path d="M4.614 20.952L6.433 21.784C6.702 21.196 6.992 20.616 7.297 20.061L5.543 19.1C5.215 19.7 4.9 20.321 4.614 20.952" fill="black"></path><path d="M9.383 16.82L7.783 15.62C7.373 16.166 6.975 16.738 6.599 17.32L8.282 18.4C8.632 17.858 9 17.326 9.383 16.82" fill="black"></path><path d="M3.166 24.833L5.086 25.396C5.265 24.785 5.47 24.17 5.694 23.565L3.819 22.865A30 30 0 0 0 3.166 24.833" fill="black"></path><path d="M16.4 55.716C15.857 55.366 15.325 54.996 14.819 54.616L13.619 56.216C14.165 56.626 14.737 57.024 15.319 57.4Z" fill="black"></path><path d="M2.292 37.13L4.272 36.847A26 26 0 0 1 4.072 34.931L2.078 35.071C2.122 35.762 2.195 36.455 2.292 37.13" fill="black"></path><path d="M13.314 53.4C12.834 52.983 12.359 52.542 11.904 52.087L10.49 53.5C10.979 53.988 11.49 54.463 12.006 54.911Z" fill="black"></path><path d="M6.434 44.218A27 27 0 0 1 5.696 42.44L3.823 43.14C4.064 43.788 4.331 44.431 4.615 45.05Z" fill="black"></path><path d="M8.281 47.6C7.932 47.058 7.601 46.5 7.297 45.943L5.541 46.9C5.869 47.5 6.225 48.1 6.6 48.68Z" fill="black"></path><path d="M19.782 57.567A26 26 0 0 1 18.059 56.703L17.1 58.457C17.7 58.785 18.321 59.097 18.952 59.386Z" fill="black"></path><path d="M4.609 27.26L2.654 26.842A30 30 0 0 0 2.29 28.877L4.271 29.16C4.359 28.534 4.474 27.9 4.609 27.26" fill="black"></path><path d="M11.909 13.906L10.5 12.492C10.012 12.98 9.537 13.492 9.089 14.008L10.6 15.316C11.013 14.836 11.454 14.361 11.909 13.906" fill="black"></path><path d="M3.168 41.175L5.088 40.612A26 26 0 0 1 4.613 38.746L2.658 39.166C2.8 39.828 2.972 40.5 3.168 41.175" fill="black"></path><path d="M38.61 58.912C37.987 59.095 37.359 59.255 36.744 59.387L37.164 61.342A29 29 0 0 0 39.173 60.832Z" fill="black"></path><path d="M23.394 58.914A28 28 0 0 1 21.563 58.306L20.863 60.181C21.512 60.422 22.173 60.642 22.828 60.834Z" fill="black"></path><path d="M47.178 54.62L48.378 56.22A29 29 0 0 0 49.99 54.92L48.68 53.41C48.188 53.834 47.685 54.241 47.178 54.62" fill="black"></path><path d="M31 60C30.354 60 29.707 59.978 29.076 59.933L28.934 61.927C29.612 61.976 30.309 62 31.002 62Z" fill="black"></path><path d="M54.7 45.943L56.454 46.904C56.786 46.299 57.099 45.676 57.384 45.052L55.565 44.22C55.3 44.8 55.01 45.38 54.7 45.943" fill="black"></path><path d="M27.159 59.729C26.533 59.64 25.895 59.529 25.259 59.39L24.841 61.345C25.521 61.49 26.205 61.613 26.876 61.709Z" fill="black"></path><path d="M43.937 56.706L44.897 58.46C45.497 58.13 46.097 57.773 46.676 57.402L45.594 55.721A27 27 0 0 1 43.937 56.706" fill="black"></path><path d="M34.846 59.729C34.218 59.818 33.573 59.887 32.93 59.929L33.07 61.923A28 28 0 0 0 35.129 61.705Z" fill="black"></path><path d="M59 28A2.993 2.993 0 0 0 57.972 33.807C57.961 34.181 57.959 34.559 57.933 34.926L59.927 35.068C59.956 34.66 59.959 34.241 59.971 33.825A2.992 2.992 0 0 0 59 28M59 32A1 1 0 1 1 60 31 1 1 0 0 1 59 32" fill="black"></path><path d="M28 26A9 9 0 1 0 37 35 9.01 9.01 0 0 0 28 26M33.515 30.7L32.084 31.03A1 1 0 0 0 31.354 32.297L31.798 33.751 30.326 35.216 27.233 35.762 27.779 32.67 31.5 28.95A7 7 0 0 1 33.515 30.705ZM28 42A7 7 0 1 1 29.468 28.158L26.143 31.483A1 1 0 0 0 25.865 32.017L25.016 36.826A1 1 0 0 0 26 38 1 1 0 0 0 26.174 37.984L30.983 37.135A1 1 0 0 0 31.515 36.859L33.635 34.749A1 1 0 0 0 33.886 33.749L33.579 32.749 34.538 32.528A6.98 6.98 0 0 1 28 42" fill="black"></path><path d="M49.316 13.681A5.9 5.9 0 0 0 43.716 12.181 6.57 6.57 0 0 0 38.981 16.571L37.976 19.646 36.321 21.308A0.97 0.97 0 0 0 35.78 21.568L33.91 23.433A13 13 0 0 0 32 22.643V20A1 1 0 0 0 31 19H25A1 1 0 0 0 24 20V22.643A13 13 0 0 0 22.09 23.433L20.222 21.565A1 1 0 0 0 18.808 21.565L14.565 25.808A1 1 0 0 0 14.565 27.222L16.433 29.09A13 13 0 0 0 15.643 31H13A1 1 0 0 0 12 32V38A1 1 0 0 0 13 39H15.643A13 13 0 0 0 16.433 40.91L14.565 42.778A1 1 0 0 0 14.565 44.192L18.808 48.435A1 1 0 0 0 20.222 48.435L22.09 46.567A13 13 0 0 0 24 47.357V50A1 1 0 0 0 25 51H31A1 1 0 0 0 32 50V47.357A13 13 0 0 0 33.91 46.567L35.778 48.435A1 1 0 0 0 37.192 48.435L41.435 44.192A1 1 0 0 0 41.435 42.778L39.567 40.91A13 13 0 0 0 40.357 39H43A1 1 0 0 0 44 38V32A1 1 0 0 0 43 31H40.357A13 13 0 0 0 39.567 29.09L41.435 27.222A0.97 0.97 0 0 0 41.695 26.681L43.357 25.026 46.427 24.026A6.625 6.625 0 0 0 51 17.8 5.78 5.78 0 0 0 49.316 13.681M39.606 33H42V37H39.606A1 1 0 0 0 38.638 37.75 11 11 0 0 1 37.468 40.577 1 1 0 0 0 37.622 41.793L39.313 43.485 36.485 46.313 34.793 44.622A1.006 1.006 0 0 0 33.577 44.468 11 11 0 0 1 30.75 45.638 1 1 0 0 0 30 46.606V49H26V46.606A1 1 0 0 0 25.25 45.638 11 11 0 0 1 22.423 44.468 1 1 0 0 0 21.207 44.622L19.515 46.313 16.687 43.485 18.378 41.793A1 1 0 0 0 18.532 40.577 11 11 0 0 1 17.362 37.75 1 1 0 0 0 16.394 37H14V33H16.394A1 1 0 0 0 17.362 32.25 11 11 0 0 1 18.532 29.423 1 1 0 0 0 18.378 28.207L16.687 26.515 19.515 23.687 21.207 25.378A1 1 0 0 0 22.423 25.532 11 11 0 0 1 25.25 24.362 1 1 0 0 0 26 23.394V21H30V23.394A1 1 0 0 0 30.75 24.362 11 11 0 0 1 33.577 25.532 1 1 0 0 0 34.793 25.378L36.485 23.687 39.313 26.515 37.622 28.207A1 1 0 0 0 37.468 29.423 11 11 0 0 1 38.638 32.25 1 1 0 0 0 39.606 33M45.806 22.12L42.506 23.2A1 1 0 0 0 42.112 23.441L40.585 24.961 38.036 22.412 39.556 20.885A1 1 0 0 0 39.797 20.491L40.878 17.191A4.58 4.58 0 0 1 44.178 14.125 3.87 3.87 0 0 1 47.9 15.1 3.8 3.8 0 0 1 49 17.8 4.61 4.61 0 0 1 45.809 22.12Z" fill="black"></path><path d="M45 15A3 3 0 1 0 48 18 3 3 0 0 0 45 15M45 19A1 1 0 1 1 46 18 1 1 0 0 1 45 19" fill="black"></path></svg></g></svg></g><g></g></svg></g><defs><mask></mask></defs></svg><rect width="395.52" height="178.4126608225352" fill="black" stroke="none" visibility="hidden"></rect></g></mask><linearGradient x1="0.054" x2="0.941" y1="0.5" y2="0.5" id="1d8aa40f-978e-438d-8ae6-f40686a3a163"><stop stop-color="#9c7945" offset="0"></stop><stop stop-color="#faf3aa" offset="0.498"></stop><stop stop-color="#9c7945" offset="1"></stop></linearGradient><rect width="395.52" height="178.4126608225352" fill="url(#1d8aa40f-978e-438d-8ae6-f40686a3a163)" mask="url(#fdf6c2ca-b9b2-47bb-af91-377a5353653e)" data-fill-palette-color="primary"></rect><mask id="40c60e28-0960-4d29-92c2-6deeb89466bb"><g id="SvgjsG1031"><svg viewBox="0 0 395.52 178.4126608225352" height="178.4126608225352" width="395.52"><g><svg viewBox="0 0 395.52 178.4126608225352" height="178.4126608225352" width="395.52"><g transform="matrix(1,0,0,1,0,110.26618194929577)"><svg viewBox="0 0 395.52 68.14647887323943" height="68.14647887323943" width="395.52"><g id="SvgjsG1030"><svg viewBox="0 0 395.52 68.14647887323943" height="68.14647887323943" width="395.52" id="SvgjsSvg1029"><g><svg viewBox="0 0 395.52 68.14647887323943" height="68.14647887323943" width="395.52"><g transform="matrix(1,0,0,1,0,0)"><svg width="395.52" viewBox="2.53 -33.33 253.9 43.75" height="68.14647887323943" data-palette-color="url(#1d8aa40f-978e-438d-8ae6-f40686a3a163)"></svg></g></svg></g></svg></g></svg></g><g transform="matrix(1,0,0,1,150.66983891556492,0)"><svg viewBox="0 0 94.18032216887013 94.1784338028169" height="94.1784338028169" width="94.18032216887013"><g><svg xmlns="http://www.w3.org/2000/svg" data-name="Layer 1" viewBox="2 2.0002671920968043 60.00093585889972 59.99973280790319" x="0" y="0" height="94.1784338028169" width="94.18032216887013" class="icon-icon-0" data-fill-palette-color="accent" id="SvgjsSvg1028"><path d="M31.385 7.788A1 1 0 0 0 32.242 7.97L40.242 5.97A1 1 0 0 0 40.242 4.03L32.242 2.03A1 1 0 0 0 31 3V7A1 1 0 0 0 31.385 7.788M33 4.281L35.877 5 33 5.719Z" fill="white"></path><path d="M56.305 42.438L58.18 43.138C58.421 42.489 58.641 41.828 58.833 41.173L56.913 40.61A28 28 0 0 1 56.305 42.438" fill="white"></path><path d="M59.709 37.126L57.729 36.843C57.64 37.469 57.529 38.107 57.39 38.743L59.345 39.161C59.49 38.481 59.613 37.8 59.709 37.126" fill="white"></path><path d="M26.868 4.292L27.151 6.272C27.792 6.181 28.436 6.112 29.065 6.072L28.929 4.072A29 29 0 0 0 26.868 4.292" fill="white"></path><path d="M13.321 12.592C13.81 12.169 14.313 11.762 14.821 11.383L13.621 9.783A29 29 0 0 0 12.009 11.083Z" fill="white"></path><path d="M43.049 59.386L42.217 57.567A27 27 0 0 1 40.439 58.305L41.139 60.178A28 28 0 0 0 43.049 59.386" fill="white"></path><path d="M4.067 31.075L2.067 30.937A33 33 0 0 0 2 33H4C4 32.359 4.022 31.712 4.067 31.075" fill="white"></path><path d="M55.4 48.684L53.715 47.6C53.365 48.143 52.995 48.675 52.615 49.181L54.215 50.381C54.622 49.84 55.021 49.268 55.4 48.684" fill="white"></path><path d="M52.913 52L51.4 50.687C50.983 51.167 50.542 51.642 50.087 52.097L51.5 53.511C51.99 53.022 52.465 52.513 52.913 52" fill="white"></path><path d="M21.558 7.7L20.858 5.827C20.21 6.068 19.567 6.335 18.948 6.619L19.78 8.438A23 23 0 0 1 21.558 7.7" fill="white"></path><path d="M25.254 6.613L24.832 4.658C24.166 4.802 23.49 4.974 22.824 5.169L23.387 7.089C24.007 6.907 24.635 6.747 25.254 6.613" fill="white"></path><path d="M16.4 10.281C16.942 9.932 17.5 9.601 18.057 9.297L17.1 7.541C16.5 7.869 15.9 8.225 15.32 8.6Z" fill="white"></path><path d="M10.591 50.678C10.168 50.189 9.761 49.686 9.382 49.178L7.782 50.378A29 29 0 0 0 9.082 51.99Z" fill="white"></path><path d="M4.614 20.952L6.433 21.784C6.702 21.196 6.992 20.616 7.297 20.061L5.543 19.1C5.215 19.7 4.9 20.321 4.614 20.952" fill="white"></path><path d="M9.383 16.82L7.783 15.62C7.373 16.166 6.975 16.738 6.599 17.32L8.282 18.4C8.632 17.858 9 17.326 9.383 16.82" fill="white"></path><path d="M3.166 24.833L5.086 25.396C5.265 24.785 5.47 24.17 5.694 23.565L3.819 22.865A30 30 0 0 0 3.166 24.833" fill="white"></path><path d="M16.4 55.716C15.857 55.366 15.325 54.996 14.819 54.616L13.619 56.216C14.165 56.626 14.737 57.024 15.319 57.4Z" fill="white"></path><path d="M2.292 37.13L4.272 36.847A26 26 0 0 1 4.072 34.931L2.078 35.071C2.122 35.762 2.195 36.455 2.292 37.13" fill="white"></path><path d="M13.314 53.4C12.834 52.983 12.359 52.542 11.904 52.087L10.49 53.5C10.979 53.988 11.49 54.463 12.006 54.911Z" fill="white"></path><path d="M6.434 44.218A27 27 0 0 1 5.696 42.44L3.823 43.14C4.064 43.788 4.331 44.431 4.615 45.05Z" fill="white"></path><path d="M8.281 47.6C7.932 47.058 7.601 46.5 7.297 45.943L5.541 46.9C5.869 47.5 6.225 48.1 6.6 48.68Z" fill="white"></path><path d="M19.782 57.567A26 26 0 0 1 18.059 56.703L17.1 58.457C17.7 58.785 18.321 59.097 18.952 59.386Z" fill="white"></path><path d="M4.609 27.26L2.654 26.842A30 30 0 0 0 2.29 28.877L4.271 29.16C4.359 28.534 4.474 27.9 4.609 27.26" fill="white"></path><path d="M11.909 13.906L10.5 12.492C10.012 12.98 9.537 13.492 9.089 14.008L10.6 15.316C11.013 14.836 11.454 14.361 11.909 13.906" fill="white"></path><path d="M3.168 41.175L5.088 40.612A26 26 0 0 1 4.613 38.746L2.658 39.166C2.8 39.828 2.972 40.5 3.168 41.175" fill="white"></path><path d="M38.61 58.912C37.987 59.095 37.359 59.255 36.744 59.387L37.164 61.342A29 29 0 0 0 39.173 60.832Z" fill="white"></path><path d="M23.394 58.914A28 28 0 0 1 21.563 58.306L20.863 60.181C21.512 60.422 22.173 60.642 22.828 60.834Z" fill="white"></path><path d="M47.178 54.62L48.378 56.22A29 29 0 0 0 49.99 54.92L48.68 53.41C48.188 53.834 47.685 54.241 47.178 54.62" fill="white"></path><path d="M31 60C30.354 60 29.707 59.978 29.076 59.933L28.934 61.927C29.612 61.976 30.309 62 31.002 62Z" fill="white"></path><path d="M54.7 45.943L56.454 46.904C56.786 46.299 57.099 45.676 57.384 45.052L55.565 44.22C55.3 44.8 55.01 45.38 54.7 45.943" fill="white"></path><path d="M27.159 59.729C26.533 59.64 25.895 59.529 25.259 59.39L24.841 61.345C25.521 61.49 26.205 61.613 26.876 61.709Z" fill="white"></path><path d="M43.937 56.706L44.897 58.46C45.497 58.13 46.097 57.773 46.676 57.402L45.594 55.721A27 27 0 0 1 43.937 56.706" fill="white"></path><path d="M34.846 59.729C34.218 59.818 33.573 59.887 32.93 59.929L33.07 61.923A28 28 0 0 0 35.129 61.705Z" fill="white"></path><path d="M59 28A2.993 2.993 0 0 0 57.972 33.807C57.961 34.181 57.959 34.559 57.933 34.926L59.927 35.068C59.956 34.66 59.959 34.241 59.971 33.825A2.992 2.992 0 0 0 59 28M59 32A1 1 0 1 1 60 31 1 1 0 0 1 59 32" fill="white"></path><path d="M28 26A9 9 0 1 0 37 35 9.01 9.01 0 0 0 28 26M33.515 30.7L32.084 31.03A1 1 0 0 0 31.354 32.297L31.798 33.751 30.326 35.216 27.233 35.762 27.779 32.67 31.5 28.95A7 7 0 0 1 33.515 30.705ZM28 42A7 7 0 1 1 29.468 28.158L26.143 31.483A1 1 0 0 0 25.865 32.017L25.016 36.826A1 1 0 0 0 26 38 1 1 0 0 0 26.174 37.984L30.983 37.135A1 1 0 0 0 31.515 36.859L33.635 34.749A1 1 0 0 0 33.886 33.749L33.579 32.749 34.538 32.528A6.98 6.98 0 0 1 28 42" fill="white"></path><path d="M49.316 13.681A5.9 5.9 0 0 0 43.716 12.181 6.57 6.57 0 0 0 38.981 16.571L37.976 19.646 36.321 21.308A0.97 0.97 0 0 0 35.78 21.568L33.91 23.433A13 13 0 0 0 32 22.643V20A1 1 0 0 0 31 19H25A1 1 0 0 0 24 20V22.643A13 13 0 0 0 22.09 23.433L20.222 21.565A1 1 0 0 0 18.808 21.565L14.565 25.808A1 1 0 0 0 14.565 27.222L16.433 29.09A13 13 0 0 0 15.643 31H13A1 1 0 0 0 12 32V38A1 1 0 0 0 13 39H15.643A13 13 0 0 0 16.433 40.91L14.565 42.778A1 1 0 0 0 14.565 44.192L18.808 48.435A1 1 0 0 0 20.222 48.435L22.09 46.567A13 13 0 0 0 24 47.357V50A1 1 0 0 0 25 51H31A1 1 0 0 0 32 50V47.357A13 13 0 0 0 33.91 46.567L35.778 48.435A1 1 0 0 0 37.192 48.435L41.435 44.192A1 1 0 0 0 41.435 42.778L39.567 40.91A13 13 0 0 0 40.357 39H43A1 1 0 0 0 44 38V32A1 1 0 0 0 43 31H40.357A13 13 0 0 0 39.567 29.09L41.435 27.222A0.97 0.97 0 0 0 41.695 26.681L43.357 25.026 46.427 24.026A6.625 6.625 0 0 0 51 17.8 5.78 5.78 0 0 0 49.316 13.681M39.606 33H42V37H39.606A1 1 0 0 0 38.638 37.75 11 11 0 0 1 37.468 40.577 1 1 0 0 0 37.622 41.793L39.313 43.485 36.485 46.313 34.793 44.622A1.006 1.006 0 0 0 33.577 44.468 11 11 0 0 1 30.75 45.638 1 1 0 0 0 30 46.606V49H26V46.606A1 1 0 0 0 25.25 45.638 11 11 0 0 1 22.423 44.468 1 1 0 0 0 21.207 44.622L19.515 46.313 16.687 43.485 18.378 41.793A1 1 0 0 0 18.532 40.577 11 11 0 0 1 17.362 37.75 1 1 0 0 0 16.394 37H14V33H16.394A1 1 0 0 0 17.362 32.25 11 11 0 0 1 18.532 29.423 1 1 0 0 0 18.378 28.207L16.687 26.515 19.515 23.687 21.207 25.378A1 1 0 0 0 22.423 25.532 11 11 0 0 1 25.25 24.362 1 1 0 0 0 26 23.394V21H30V23.394A1 1 0 0 0 30.75 24.362 11 11 0 0 1 33.577 25.532 1 1 0 0 0 34.793 25.378L36.485 23.687 39.313 26.515 37.622 28.207A1 1 0 0 0 37.468 29.423 11 11 0 0 1 38.638 32.25 1 1 0 0 0 39.606 33M45.806 22.12L42.506 23.2A1 1 0 0 0 42.112 23.441L40.585 24.961 38.036 22.412 39.556 20.885A1 1 0 0 0 39.797 20.491L40.878 17.191A4.58 4.58 0 0 1 44.178 14.125 3.87 3.87 0 0 1 47.9 15.1 3.8 3.8 0 0 1 49 17.8 4.61 4.61 0 0 1 45.809 22.12Z" fill="white"></path><path d="M45 15A3 3 0 1 0 48 18 3 3 0 0 0 45 15M45 19A1 1 0 1 1 46 18 1 1 0 0 1 45 19" fill="white"></path></svg></g></svg></g><g></g></svg></g><defs><mask></mask></defs><mask><g id="SvgjsG1027"><svg viewBox="0 0 395.52 178.4126608225352" height="178.4126608225352" width="395.52"><g><svg viewBox="0 0 395.52 178.4126608225352" height="178.4126608225352" width="395.52"><g transform="matrix(1,0,0,1,0,110.26618194929577)"><svg viewBox="0 0 395.52 68.14647887323943" height="68.14647887323943" width="395.52"><g id="SvgjsG1026"><svg viewBox="0 0 395.52 68.14647887323943" height="68.14647887323943" width="395.52" id="SvgjsSvg1025"><g><svg viewBox="0 0 395.52 68.14647887323943" height="68.14647887323943" width="395.52"><g transform="matrix(1,0,0,1,0,0)"><svg width="395.52" viewBox="2.53 -33.33 253.9 43.75" height="68.14647887323943" data-palette-color="url(#1d8aa40f-978e-438d-8ae6-f40686a3a163)"><path d="M11.11 0.42L11.11 0.42Q8.33 0.42 6.09-0.69 3.85-1.81 2.53-3.4L2.53-3.4 3.68-8.19Q4.65-6.25 6.6-4.69 8.54-3.13 11.25-3.13L11.25-3.13Q13.72-3.13 15.33-4.69 16.94-6.25 16.94-8.54L16.94-8.54Q16.94-10.21 16.15-11.28 15.35-12.36 14.34-12.99 13.33-13.61 12.74-13.89L12.74-13.89 8.92-15.83Q8.02-16.32 6.68-17.19 5.35-18.06 4.34-19.58 3.33-21.11 3.33-23.54L3.33-23.54Q3.33-25.9 4.43-27.74 5.52-29.58 7.48-30.63 9.44-31.67 11.98-31.67L11.98-31.67Q14.48-31.67 16.39-30.78 18.3-29.9 19.38-28.96L19.38-28.96 18.23-24.17Q17.36-25.63 15.66-26.91 13.96-28.19 11.81-28.19L11.81-28.19Q9.72-28.19 8.47-26.96 7.22-25.73 7.22-23.92L7.22-23.92Q7.22-22.53 7.86-21.63 8.51-20.73 9.32-20.21 10.14-19.69 10.66-19.41L10.66-19.41 14.55-17.47Q15.24-17.12 16.3-16.49 17.36-15.87 18.4-14.84 19.44-13.82 20.14-12.34 20.83-10.87 20.83-8.78L20.83-8.78Q20.83-6.11 19.57-4.03 18.3-1.94 16.11-0.76 13.92 0.42 11.11 0.42ZM35.76 0.42L35.76 0.42Q32.74 0.42 30.24-1.04 27.74-2.5 26.26-4.97 24.79-7.43 24.79-10.42L24.79-10.42Q24.79-13.44 26.26-15.89 27.74-18.33 30.24-19.79 32.74-21.25 35.76-21.25L35.76-21.25Q38.82-21.25 41.3-19.79 43.78-18.33 45.26-15.89 46.73-13.44 46.73-10.42L46.73-10.42Q46.73-7.43 45.26-4.97 43.78-2.5 41.3-1.04 38.82 0.42 35.76 0.42ZM35.76-3.13L35.76-3.13Q37.78-3.13 39.41-4.11 41.04-5.1 42.01-6.75 42.98-8.4 42.98-10.42L42.98-10.42Q42.98-12.43 42.01-14.08 41.04-15.73 39.41-16.72 37.78-17.71 35.76-17.71L35.76-17.71Q33.75-17.71 32.12-16.72 30.48-15.73 29.51-14.08 28.54-12.43 28.54-10.42L28.54-10.42Q28.54-8.4 29.51-6.75 30.48-5.1 32.12-4.11 33.75-3.13 35.76-3.13ZM55.69 0L51.94 0 51.94-33.33 55.69-33.33 55.69 0ZM80.48-20.83L69.96 1.04 59.44-20.83 63.71-20.83 67.94-11.81Q68.53-10.59 69.06-9.41 69.58-8.23 70.06-6.53L70.06-6.53Q70.58-8.23 71.12-9.43 71.66-10.63 72.21-11.81L72.21-11.81 76.49-20.83 80.48-20.83ZM94.16 0.42L94.16 0.42Q90.89 0.42 88.31-1.04 85.72-2.5 84.24-5.02 82.77-7.53 82.77-10.63L82.77-10.63Q82.77-13.58 84.19-15.99 85.62-18.4 88.03-19.83 90.44-21.25 93.36-21.25L93.36-21.25Q96.24-21.25 98.64-19.88 101.03-18.51 102.46-16.18 103.88-13.85 103.88-10.9L103.88-10.9 103.88-9.38 90.27-9.38Q89.37-9.38 88.43-9.44 87.49-9.51 86.59-9.65L86.59-9.65Q86.97-6.88 89.1-5 91.24-3.13 94.19-3.13L94.19-3.13Q96.17-3.13 97.87-4.03 99.57-4.93 100.62-6.42L100.62-6.42 101.66-2.15Q100.16-0.94 98.24-0.26 96.31 0.42 94.16 0.42ZM86.48-12.19L86.48-12.19Q88.36-12.5 90.27-12.5L90.27-12.5 97.18-12.5Q97.94-12.5 98.69-12.45 99.43-12.4 100.2-12.33L100.2-12.33Q99.71-14.76 97.77-16.34 95.82-17.92 93.36-17.92L93.36-17.92Q90.82-17.92 88.91-16.23 87-14.55 86.48-12.19ZM113.67 0L109.92 0 109.92-32.29 124.43-12.29 138.67-32.29 138.67 0 134.71 0 134.71-14.44Q134.71-15.87 134.74-17.55 134.78-19.24 134.99-21.39L134.99-21.39Q133.91-19.48 132.89-18.04 131.86-16.6 131.03-15.38L131.03-15.38 124.29-5.83 117.35-15.38Q116.48-16.6 115.49-18.04 114.5-19.48 113.39-21.39L113.39-21.39Q113.6-19.24 113.63-17.55 113.67-15.87 113.67-14.44L113.67-14.44 113.67 0ZM149.57 10.42L145.51 10.42 152.28-3.06 143.46-20.83 147.69-20.83 152.14-11.81Q152.73-10.59 153.28-9.41 153.84-8.23 154.39-6.56L154.39-6.56Q154.99-8.23 155.52-9.43 156.06-10.63 156.69-11.81L156.69-11.81 161.2-20.83 165.19-20.83 149.57 10.42ZM173.94 0L169.98 0 169.98-31.25 177.73-31.25Q180.82-31.25 182.95-30.31 185.09-29.38 186.41-27.86 187.73-26.35 188.33-24.58 188.94-22.81 188.94-21.11L188.94-21.11Q188.94-19.44 188.35-17.67 187.76-15.9 186.44-14.38 185.12-12.85 182.97-11.91 180.82-10.97 177.73-10.97L177.73-10.97 173.94-10.97 173.94 0ZM173.94-27.71L173.94-14.51 177.52-14.51Q180.33-14.51 181.96-15.5 183.59-16.49 184.29-18 184.98-19.51 184.98-21.11L184.98-21.11Q184.98-22.64 184.31-24.17 183.63-25.69 182.01-26.7 180.4-27.71 177.52-27.71L177.52-27.71 173.94-27.71ZM197.69 0L193.94 0 193.94-20.83 197.41-20.83 197.41-17.01Q198.52-18.85 200.36-19.95 202.2-21.04 204.74-21.04L204.74-21.04 205.67-17.29Q205.01-17.5 204.15-17.5L204.15-17.5Q201.23-17.5 199.46-15.64 197.69-13.78 197.69-10.35L197.69-10.35 197.69 0ZM219.07 0.42L219.07 0.42Q216.05 0.42 213.55-1.04 211.05-2.5 209.58-4.97 208.1-7.43 208.1-10.42L208.1-10.42Q208.1-13.44 209.58-15.89 211.05-18.33 213.55-19.79 216.05-21.25 219.07-21.25L219.07-21.25Q222.13-21.25 224.61-19.79 227.1-18.33 228.57-15.89 230.05-13.44 230.05-10.42L230.05-10.42Q230.05-7.43 228.57-4.97 227.1-2.5 224.61-1.04 222.13 0.42 219.07 0.42ZM219.07-3.13L219.07-3.13Q221.09-3.13 222.72-4.11 224.35-5.1 225.32-6.75 226.3-8.4 226.3-10.42L226.3-10.42Q226.3-12.43 225.32-14.08 224.35-15.73 222.72-16.72 221.09-17.71 219.07-17.71L219.07-17.71Q217.06-17.71 215.43-16.72 213.8-15.73 212.82-14.08 211.85-12.43 211.85-10.42L211.85-10.42Q211.85-8.4 212.82-6.75 213.8-5.1 215.43-4.11 217.06-3.13 219.07-3.13ZM246.05 0.28L246.05 0.28Q243.9 0.28 242.02-0.54 240.15-1.35 238.73-2.74L238.73-2.74 238.73 0 235.25 0 235.25-33.33 239-33.33 239-18.37Q240.39-19.65 242.2-20.38 244-21.11 246.05-21.11L246.05-21.11Q248.93-21.11 251.28-19.67 253.62-18.23 255.03-15.8 256.43-13.37 256.43-10.42L256.43-10.42Q256.43-7.47 255.03-5.03 253.62-2.6 251.28-1.16 248.93 0.28 246.05 0.28ZM245.57-3.13L245.57-3.13Q247.54-3.13 249.16-4.11 250.77-5.1 251.73-6.75 252.68-8.4 252.68-10.42L252.68-10.42Q252.68-12.43 251.73-14.08 250.77-15.73 249.16-16.72 247.54-17.71 245.57-17.71L245.57-17.71Q243.59-17.71 241.97-16.72 240.36-15.73 239.4-14.08 238.45-12.43 238.45-10.42L238.45-10.42Q238.45-8.4 239.4-6.75 240.36-5.1 241.97-4.11 243.59-3.13 245.57-3.13Z" opacity="1" transform="matrix(1,0,0,1,0,0)" fill="black" class="wordmark-text-0" id="SvgjsPath1024"></path></svg></g></svg></g></svg></g></svg></g><g transform="matrix(1,0,0,1,150.66983891556492,0)"><svg viewBox="0 0 94.18032216887013 94.1784338028169" height="94.1784338028169" width="94.18032216887013"><g><svg xmlns="http://www.w3.org/2000/svg" data-name="Layer 1" viewBox="2 2.0002671920968043 60.00093585889972 59.99973280790319" x="0" y="0" height="94.1784338028169" width="94.18032216887013" class="icon-icon-0" data-fill-palette-color="accent" id="SvgjsSvg1023"><path d="M31.385 7.788A1 1 0 0 0 32.242 7.97L40.242 5.97A1 1 0 0 0 40.242 4.03L32.242 2.03A1 1 0 0 0 31 3V7A1 1 0 0 0 31.385 7.788M33 4.281L35.877 5 33 5.719Z" fill="black"></path><path d="M56.305 42.438L58.18 43.138C58.421 42.489 58.641 41.828 58.833 41.173L56.913 40.61A28 28 0 0 1 56.305 42.438" fill="black"></path><path d="M59.709 37.126L57.729 36.843C57.64 37.469 57.529 38.107 57.39 38.743L59.345 39.161C59.49 38.481 59.613 37.8 59.709 37.126" fill="black"></path><path d="M26.868 4.292L27.151 6.272C27.792 6.181 28.436 6.112 29.065 6.072L28.929 4.072A29 29 0 0 0 26.868 4.292" fill="black"></path><path d="M13.321 12.592C13.81 12.169 14.313 11.762 14.821 11.383L13.621 9.783A29 29 0 0 0 12.009 11.083Z" fill="black"></path><path d="M43.049 59.386L42.217 57.567A27 27 0 0 1 40.439 58.305L41.139 60.178A28 28 0 0 0 43.049 59.386" fill="black"></path><path d="M4.067 31.075L2.067 30.937A33 33 0 0 0 2 33H4C4 32.359 4.022 31.712 4.067 31.075" fill="black"></path><path d="M55.4 48.684L53.715 47.6C53.365 48.143 52.995 48.675 52.615 49.181L54.215 50.381C54.622 49.84 55.021 49.268 55.4 48.684" fill="black"></path><path d="M52.913 52L51.4 50.687C50.983 51.167 50.542 51.642 50.087 52.097L51.5 53.511C51.99 53.022 52.465 52.513 52.913 52" fill="black"></path><path d="M21.558 7.7L20.858 5.827C20.21 6.068 19.567 6.335 18.948 6.619L19.78 8.438A23 23 0 0 1 21.558 7.7" fill="black"></path><path d="M25.254 6.613L24.832 4.658C24.166 4.802 23.49 4.974 22.824 5.169L23.387 7.089C24.007 6.907 24.635 6.747 25.254 6.613" fill="black"></path><path d="M16.4 10.281C16.942 9.932 17.5 9.601 18.057 9.297L17.1 7.541C16.5 7.869 15.9 8.225 15.32 8.6Z" fill="black"></path><path d="M10.591 50.678C10.168 50.189 9.761 49.686 9.382 49.178L7.782 50.378A29 29 0 0 0 9.082 51.99Z" fill="black"></path><path d="M4.614 20.952L6.433 21.784C6.702 21.196 6.992 20.616 7.297 20.061L5.543 19.1C5.215 19.7 4.9 20.321 4.614 20.952" fill="black"></path><path d="M9.383 16.82L7.783 15.62C7.373 16.166 6.975 16.738 6.599 17.32L8.282 18.4C8.632 17.858 9 17.326 9.383 16.82" fill="black"></path><path d="M3.166 24.833L5.086 25.396C5.265 24.785 5.47 24.17 5.694 23.565L3.819 22.865A30 30 0 0 0 3.166 24.833" fill="black"></path><path d="M16.4 55.716C15.857 55.366 15.325 54.996 14.819 54.616L13.619 56.216C14.165 56.626 14.737 57.024 15.319 57.4Z" fill="black"></path><path d="M2.292 37.13L4.272 36.847A26 26 0 0 1 4.072 34.931L2.078 35.071C2.122 35.762 2.195 36.455 2.292 37.13" fill="black"></path><path d="M13.314 53.4C12.834 52.983 12.359 52.542 11.904 52.087L10.49 53.5C10.979 53.988 11.49 54.463 12.006 54.911Z" fill="black"></path><path d="M6.434 44.218A27 27 0 0 1 5.696 42.44L3.823 43.14C4.064 43.788 4.331 44.431 4.615 45.05Z" fill="black"></path><path d="M8.281 47.6C7.932 47.058 7.601 46.5 7.297 45.943L5.541 46.9C5.869 47.5 6.225 48.1 6.6 48.68Z" fill="black"></path><path d="M19.782 57.567A26 26 0 0 1 18.059 56.703L17.1 58.457C17.7 58.785 18.321 59.097 18.952 59.386Z" fill="black"></path><path d="M4.609 27.26L2.654 26.842A30 30 0 0 0 2.29 28.877L4.271 29.16C4.359 28.534 4.474 27.9 4.609 27.26" fill="black"></path><path d="M11.909 13.906L10.5 12.492C10.012 12.98 9.537 13.492 9.089 14.008L10.6 15.316C11.013 14.836 11.454 14.361 11.909 13.906" fill="black"></path><path d="M3.168 41.175L5.088 40.612A26 26 0 0 1 4.613 38.746L2.658 39.166C2.8 39.828 2.972 40.5 3.168 41.175" fill="black"></path><path d="M38.61 58.912C37.987 59.095 37.359 59.255 36.744 59.387L37.164 61.342A29 29 0 0 0 39.173 60.832Z" fill="black"></path><path d="M23.394 58.914A28 28 0 0 1 21.563 58.306L20.863 60.181C21.512 60.422 22.173 60.642 22.828 60.834Z" fill="black"></path><path d="M47.178 54.62L48.378 56.22A29 29 0 0 0 49.99 54.92L48.68 53.41C48.188 53.834 47.685 54.241 47.178 54.62" fill="black"></path><path d="M31 60C30.354 60 29.707 59.978 29.076 59.933L28.934 61.927C29.612 61.976 30.309 62 31.002 62Z" fill="black"></path><path d="M54.7 45.943L56.454 46.904C56.786 46.299 57.099 45.676 57.384 45.052L55.565 44.22C55.3 44.8 55.01 45.38 54.7 45.943" fill="black"></path><path d="M27.159 59.729C26.533 59.64 25.895 59.529 25.259 59.39L24.841 61.345C25.521 61.49 26.205 61.613 26.876 61.709Z" fill="black"></path><path d="M43.937 56.706L44.897 58.46C45.497 58.13 46.097 57.773 46.676 57.402L45.594 55.721A27 27 0 0 1 43.937 56.706" fill="black"></path><path d="M34.846 59.729C34.218 59.818 33.573 59.887 32.93 59.929L33.07 61.923A28 28 0 0 0 35.129 61.705Z" fill="black"></path><path d="M59 28A2.993 2.993 0 0 0 57.972 33.807C57.961 34.181 57.959 34.559 57.933 34.926L59.927 35.068C59.956 34.66 59.959 34.241 59.971 33.825A2.992 2.992 0 0 0 59 28M59 32A1 1 0 1 1 60 31 1 1 0 0 1 59 32" fill="black"></path><path d="M28 26A9 9 0 1 0 37 35 9.01 9.01 0 0 0 28 26M33.515 30.7L32.084 31.03A1 1 0 0 0 31.354 32.297L31.798 33.751 30.326 35.216 27.233 35.762 27.779 32.67 31.5 28.95A7 7 0 0 1 33.515 30.705ZM28 42A7 7 0 1 1 29.468 28.158L26.143 31.483A1 1 0 0 0 25.865 32.017L25.016 36.826A1 1 0 0 0 26 38 1 1 0 0 0 26.174 37.984L30.983 37.135A1 1 0 0 0 31.515 36.859L33.635 34.749A1 1 0 0 0 33.886 33.749L33.579 32.749 34.538 32.528A6.98 6.98 0 0 1 28 42" fill="black"></path><path d="M49.316 13.681A5.9 5.9 0 0 0 43.716 12.181 6.57 6.57 0 0 0 38.981 16.571L37.976 19.646 36.321 21.308A0.97 0.97 0 0 0 35.78 21.568L33.91 23.433A13 13 0 0 0 32 22.643V20A1 1 0 0 0 31 19H25A1 1 0 0 0 24 20V22.643A13 13 0 0 0 22.09 23.433L20.222 21.565A1 1 0 0 0 18.808 21.565L14.565 25.808A1 1 0 0 0 14.565 27.222L16.433 29.09A13 13 0 0 0 15.643 31H13A1 1 0 0 0 12 32V38A1 1 0 0 0 13 39H15.643A13 13 0 0 0 16.433 40.91L14.565 42.778A1 1 0 0 0 14.565 44.192L18.808 48.435A1 1 0 0 0 20.222 48.435L22.09 46.567A13 13 0 0 0 24 47.357V50A1 1 0 0 0 25 51H31A1 1 0 0 0 32 50V47.357A13 13 0 0 0 33.91 46.567L35.778 48.435A1 1 0 0 0 37.192 48.435L41.435 44.192A1 1 0 0 0 41.435 42.778L39.567 40.91A13 13 0 0 0 40.357 39H43A1 1 0 0 0 44 38V32A1 1 0 0 0 43 31H40.357A13 13 0 0 0 39.567 29.09L41.435 27.222A0.97 0.97 0 0 0 41.695 26.681L43.357 25.026 46.427 24.026A6.625 6.625 0 0 0 51 17.8 5.78 5.78 0 0 0 49.316 13.681M39.606 33H42V37H39.606A1 1 0 0 0 38.638 37.75 11 11 0 0 1 37.468 40.577 1 1 0 0 0 37.622 41.793L39.313 43.485 36.485 46.313 34.793 44.622A1.006 1.006 0 0 0 33.577 44.468 11 11 0 0 1 30.75 45.638 1 1 0 0 0 30 46.606V49H26V46.606A1 1 0 0 0 25.25 45.638 11 11 0 0 1 22.423 44.468 1 1 0 0 0 21.207 44.622L19.515 46.313 16.687 43.485 18.378 41.793A1 1 0 0 0 18.532 40.577 11 11 0 0 1 17.362 37.75 1 1 0 0 0 16.394 37H14V33H16.394A1 1 0 0 0 17.362 32.25 11 11 0 0 1 18.532 29.423 1 1 0 0 0 18.378 28.207L16.687 26.515 19.515 23.687 21.207 25.378A1 1 0 0 0 22.423 25.532 11 11 0 0 1 25.25 24.362 1 1 0 0 0 26 23.394V21H30V23.394A1 1 0 0 0 30.75 24.362 11 11 0 0 1 33.577 25.532 1 1 0 0 0 34.793 25.378L36.485 23.687 39.313 26.515 37.622 28.207A1 1 0 0 0 37.468 29.423 11 11 0 0 1 38.638 32.25 1 1 0 0 0 39.606 33M45.806 22.12L42.506 23.2A1 1 0 0 0 42.112 23.441L40.585 24.961 38.036 22.412 39.556 20.885A1 1 0 0 0 39.797 20.491L40.878 17.191A4.58 4.58 0 0 1 44.178 14.125 3.87 3.87 0 0 1 47.9 15.1 3.8 3.8 0 0 1 49 17.8 4.61 4.61 0 0 1 45.809 22.12Z" fill="black"></path><path d="M45 15A3 3 0 1 0 48 18 3 3 0 0 0 45 15M45 19A1 1 0 1 1 46 18 1 1 0 0 1 45 19" fill="black"></path></svg></g></svg></g><g></g></svg></g><defs><mask></mask></defs></svg><rect width="395.52" height="178.4126608225352" fill="black" stroke="none" visibility="hidden"></rect></g></mask></svg><rect width="395.52" height="178.4126608225352" fill="black" stroke="none" visibility="hidden"></rect></g></mask><linearGradient x1="0.054" x2="0.941" y1="0.5" y2="0.5" id="4dd7acff-a18c-4fac-9141-df6bba41b8fb"><stop stop-color="#9c7945" offset="0"></stop><stop stop-color="#faf3aa" offset="0.498"></stop><stop stop-color="#9c7945" offset="1"></stop></linearGradient><rect width="395.52" height="178.4126608225352" fill="url(#4dd7acff-a18c-4fac-9141-df6bba41b8fb)" mask="url(#40c60e28-0960-4d29-92c2-6deeb89466bb)" data-fill-palette-color="accent"></rect></svg><rect width="395.52" height="178.4126608225352" fill="none" stroke="none" visibility="hidden"></rect></g></svg></g></svg>